#!OML:ASF H:\Terrain\Patient Classification 1\Animal1\Tuesday\Animal1.ASF
:FULLY-SPECIFIED
:DEGREES
1001
root 10.5881 16.4437 -14.098 6.51295 -16.9935 -0.0330347
lowerback -2.73494 -3.07104 -1.03252
upperback -6.18355 -4.06803 2.11995
thorax -4.63345 -1.946 2.81936
lowerneck 4.70991 -5.1301 -7.81917
upperneck 30.7351 -6.32458 -4.66683
head 9.07266 -4.4577 -0.696454
rclavicle -3.57812e-014 -1.98785e-014
rhumerus -45.3272 -5.97779 -67.6262
rradius 31.7615
rwrist -4.1452
rhand -18.0608 21.273
rfingers 7.12502
rthumb 8.21163 -8.54741
lclavicle -3.57812e-014 -1.98785e-014
lhumerus -43.7482 14.153 77.2558
lradius 47.7146
lwrist -24.8058
lhand 3.37784 44.776
lfingers 7.12502
lthumb 28.8215 72.5704
rfemur -12.3796 17.679 27.1093
rtibia 18.2256
rfoot -5.82974 -33.8012
rtoes 9.9815
lfemur -6.91478 -8.14862 -9.19488
ltibia 26.0744
lfoot -15.5877 29.3631
ltoes 29.9238
1002
root 10.5454 16.443 -14.0908 6.54625 -17.1796 0.0159383
lowerback -2.86443 -2.9339 -0.980999
upperback -6.16184 -3.88921 1.96813
thorax -4.56024 -1.86391 2.62382
lowerneck 4.71057 -5.20832 -7.74939
upperneck 30.7268 -6.48468 -4.46501
head 9.07451 -4.5057 -0.648349
rclavicle 7.73272e-014 1.70955e-014
rhumerus -45.3298 -6.09568 -67.8142
rradius 31.825
rwrist -3.78056
rhand -18.1745 20.8012
rfingers 7.12502
rthumb 8.10196 -9.02349
lclavicle 7.73272e-014 1.70955e-014
lhumerus -43.699 13.9375 77.1775
lradius 47.6645
lwrist -24.5025
lhand 4.28151 45.1301
lfingers 7.12502
lthumb 29.6844 72.774
rfemur -12.3048 17.959 27.2004
rtibia 18.1188
rfoot -5.34338 -33.9523
rtoes 10.7857
lfemur -7.11012 -7.80045 -9.0668
ltibia 26.508
lfoot -15.5328 28.8081
ltoes 32.2524
1003
root 10.5053 16.4461 -14.0776 6.73266 -17.3894 -0.131013
lowerback -3.13509 -2.79128 -0.678618
upperback -6.22847 -3.70236 1.8501
thorax -4.5126 -1.78788 2.32002
lowerneck 4.96333 -5.20481 -7.87682
upperneck 30.6491 -6.61024 -4.02843
head 9.02513 -4.53664 -0.474706
rclavicle 4.35835e-014 -1.78906e-014
rhumerus -45.4754 -6.35732 -67.8472
rradius 31.8449
rwrist -3.58959
rhand -17.773 20.5952
rfingers 7.12502
rthumb 8.48937 -9.2142
lclavicle 4.35835e-014 -1.78906e-014
lhumerus -43.8155 13.7867 76.9956
lradius 47.6304
lwrist -24.3876
lhand 7.38818 46.5834
lfingers 7.12502
lthumb 32.6451 73.6578
rfemur -12.2752 18.1332 27.4499
rtibia 17.9237
rfoot -5.06956 -33.7251
rtoes 10.9034
lfemur -7.4004 -7.50375 -8.73714
ltibia 27.0134
lfoot -15.8648 28.3006
ltoes 35.3256
1004
root 10.4663 16.4486 -14.0659 6.75764 -17.516 -0.0654972
lowerback -3.25169 -2.76024 -0.669206
upperback -6.32415 -3.66437 1.75868
thorax -4.55549 -1.77119 2.2176
lowerneck 5.23126 -5.12384 -7.88195
upperneck 30.6236 -6.54868 -3.9404
head 8.97086 -4.50129 -0.429802
rclavicle -5.17337e-014 1.63003e-014
rhumerus -45.675 -6.41355 -67.8473
rradius 31.8799
rwrist -3.48873
rhand -17.6197 21.0559
rfingers 7.12502
rthumb 8.63736 -8.74746
lclavicle -5.17337e-014 1.63003e-014
lhumerus -44.0676 14.1779 76.5209
lradius 47.4013
lwrist -25.0466
lhand 8.71018 46.6053
lfingers 7.12502
lthumb 33.902 73.4108
rfemur -12.0379 18.0627 27.5293
rtibia 17.549
rfoot -5.34346 -33.4931
rtoes 10.5712
lfemur -7.6931 -7.22997 -8.64877
ltibia 27.6209
lfoot -15.1711 28.3907
ltoes 35.5068
1005
root 10.4269 16.4493 -14.0572 6.74844 -17.5843 -0.125805
lowerback -3.20574 -2.82809 -0.687673
upperback -6.35799 -3.75243 1.84904
thorax -4.60657 -1.81155 2.3255
lowerneck 5.26175 -5.02029 -7.88257
upperneck 30.5115 -6.37081 -4.09773
head 8.91579 -4.42918 -0.46794
rclavicle -1.799e-014 -5.56597e-015
rhumerus -45.6068 -6.29557 -67.743
rradius 31.8666
rwrist -3.2376
rhand -17.1306 21.6648
rfingers 7.12502
rthumb 9.10928 -8.11843
lclavicle -1.799e-014 -5.56597e-015
lhumerus -44.3729 14.7891 76.0588
lradius 47.288
lwrist -25.746
lhand 6.6148 44.9801
lfingers 7.12502
lthumb 31.909 72.2043
rfemur -11.7044 17.8553 27.7887
rtibia 17.1447
rfoot -5.53636 -33.3234
rtoes 10.5824
lfemur -7.9655 -6.87356 -8.42129
ltibia 28.2412
lfoot -13.4492 28.66
ltoes 33.0575
1006
root 10.3897 16.4452 -14.0461 6.79632 -17.7747 -0.400838
lowerback -3.25036 -2.82521 -0.428955
upperback -6.26581 -3.74602 1.94845
thorax -4.49414 -1.81923 2.27796
lowerneck 5.01501 -4.96374 -7.82367
upperneck 30.477 -6.23971 -4.20943
head 8.93645 -4.37021 -0.514482
rclavicle -2.36554e-014 3.18055e-015
rhumerus -45.3392 -6.28922 -67.7699
rradius 31.8613
rwrist -3.04845
rhand -16.8076 21.6338
rfingers 7.12502
rthumb 9.42098 -8.13561
lclavicle -2.36554e-014 3.18055e-015
lhumerus -44.5534 15.043 75.8565
lradius 47.3322
lwrist -25.5547
lhand 5.11416 44.3044
lfingers 7.12502
lthumb 30.4789 71.8039
rfemur -11.477 17.831 28.243
rtibia 16.9621
rfoot -5.65958 -33.1752
rtoes 10.6748
lfemur -8.11711 -6.50373 -7.98157
ltibia 28.757
lfoot -12.3834 28.5397
ltoes 31.713
